# xmcd
#
# Track frame offsets: 
#        183
#        20908
#        40460
#        55845
#        72498
#        91043
#        112443
#        130570
#        164753
#        191900
#        217998
#        250613
#        276065
#        293755
#        311280
#
# Disc length: 4411 seconds
#
# Revision: 2
# Processed by: cddbd v1.5.2PL0 Copyright (c) Steve Scherf et al.
# Submitted via: ExactAudioCopy v1.0b4
#
DISCID=e211390f
DTITLE=Alux Nahual - Leyrnda, 15 Éxitos
DYEAR=1992
DGENRE=
TTITLE0=Mujer
TTITLE1=Aquí Está Tu Tierra
TTITLE2=Dime Que Has Olvidado
TTITLE3=Alto Al Fuego
TTITLE4=Libre Sentimiento
TTITLE5=Como Un Duende
TTITLE6=Con Tus Manos
TTITLE7=Hombres De Maíz
TTITLE8=La Fábula Del Grillo y El Mar
TTITLE9=Conquista
TTITLE10=Centroamérica
TTITLE11=Espíritu Del Duende
TTITLE12=Fiesta Privada
TTITLE13=Toca Viejo
TTITLE14=De La Nocha A La Mañana
EXTD=
EXTT0=
EXTT1=
EXTT2=
EXTT3=
EXTT4=
EXTT5=
EXTT6=
EXTT7=
EXTT8=
EXTT9=
EXTT10=
EXTT11=
EXTT12=
EXTT13=
EXTT14=
PLAYORDER=
